<?xml version="1.0" encoding="UTF-8"?>
<svg width="220" height="220" viewBox="0 0 220 220" fill="none" xmlns="http://www.w3.org/2000/svg">
  <circle cx="110" cy="110" r="110" fill="#E0E7FF"/>
  <!-- Desk -->
  <rect x="60" y="170" width="100" height="18" rx="6" fill="#A7F3D0"/>
  <!-- Laptop -->
  <rect x="90" y="140" width="40" height="24" rx="4" fill="#6366F1"/>
  <rect x="98" y="146" width="24" height="10" rx="2" fill="#F9FAFB"/>
  <!-- Boy's body -->
  <ellipse cx="110" cy="130" rx="28" ry="22" fill="#FBBF24"/>
  <ellipse cx="110" cy="130" rx="22" ry="16" fill="#FDE68A"/>
  <!-- Boy's head -->
  <ellipse cx="110" cy="100" rx="18" ry="16" fill="#F9FAFB"/>
  <ellipse cx="110" cy="100" rx="14" ry="12" fill="#F3F4F6"/>
  <!-- Hair -->
  <ellipse cx="110" cy="90" rx="12" ry="5" fill="#1E293B"/>
  <!-- Face details -->
  <ellipse cx="110" cy="104" rx="4" ry="2" fill="#FBBF24"/>
  <ellipse cx="106" cy="98" rx="2" ry="1" fill="#1E293B"/>
  <ellipse cx="114" cy="98" rx="2" ry="1" fill="#1E293B"/>
  <!-- Hands on laptop -->
  <ellipse cx="98" cy="154" rx="4" ry="2" fill="#FBBF24"/>
  <ellipse cx="122" cy="154" rx="4" ry="2" fill="#FBBF24"/>
  <!-- Smile -->
  <path d="M106 108 Q110 112 114 108" stroke="#FBBF24" stroke-width="2" fill="none"/>
</svg>
