<?xml version="1.0" encoding="UTF-8"?>
<svg width="800px" height="800px" viewBox="0 0 800 800" xmlns="http://www.w3.org/2000/svg">
  <g id="SVGRepo_bgCarrier" stroke-width="0"></g>
  <g id="SVGRepo_tracerCarrier" stroke-linecap="round" stroke-linejoin="round"></g>
  <g id="SVGRepo_iconCarrier">
    <rect width="800" height="800" fill="#E0E7FF"/>
    <g>
      <ellipse cx="400" cy="700" rx="180" ry="40" fill="#A7F3D0"/>
      <g>
        <path d="M400 600c-40 0-80-40-80-80s40-80 80-80 80 40 80 80-40 80-80 80z" fill="#6366F1"/>
        <rect x="360" y="520" width="80" height="40" rx="8" fill="#F9FAFB"/>
        <ellipse cx="400" cy="480" rx="40" ry="30" fill="#FBBF24"/>
        <ellipse cx="400" cy="480" rx="30" ry="20" fill="#FDE68A"/>
        <ellipse cx="400" cy="460" rx="20" ry="10" fill="#F9FAFB"/>
        <ellipse cx="400" cy="460" rx="15" ry="7" fill="#F3F4F6"/>
        <ellipse cx="400" cy="450" rx="10" ry="5" fill="#6366F1"/>
        <rect x="390" y="440" width="20" height="10" rx="3" fill="#6366F1"/>
        <ellipse cx="400" cy="445" rx="7" ry="3" fill="#F9FAFB"/>
        <ellipse cx="400" cy="445" rx="4" ry="2" fill="#6366F1"/>
        <rect x="395" y="442" width="10" height="5" rx="2" fill="#FBBF24"/>
        <ellipse cx="400" cy="440" rx="6" ry="2" fill="#6366F1"/>
        <ellipse cx="400" cy="440" rx="3" ry="1" fill="#F9FAFB"/>
        <ellipse cx="400" cy="435" rx="8" ry="4" fill="#6366F1"/>
        <ellipse cx="400" cy="435" rx="4" ry="2" fill="#F9FAFB"/>
        <ellipse cx="400" cy="432" rx="6" ry="2" fill="#6366F1"/>
        <ellipse cx="400" cy="432" rx="2" ry="1" fill="#F9FAFB"/>
        <!-- Hair -->
        <ellipse cx="400" cy="430" rx="12" ry="4" fill="#1E293B"/>
        <!-- Hands on laptop -->
        <ellipse cx="380" cy="560" rx="8" ry="3" fill="#FBBF24"/>
        <ellipse cx="420" cy="560" rx="8" ry="3" fill="#FBBF24"/>
      </g>
    </g>
  </g>
</svg>
