<?xml version="1.0" encoding="UTF-8"?>
<svg width="800px" height="800px" viewBox="0 0 800 800" xmlns="http://www.w3.org/2000/svg">
  <g id="SVGRepo_bgCarrier" stroke-width="0"></g>
  <g id="SVGRepo_tracerCarrier" stroke-linecap="round" stroke-linejoin="round"></g>
  <g id="SVGRepo_iconCarrier">
    <rect width="800" height="800" fill="#E0E7FF"/>
    <ellipse cx="400" cy="700" rx="180" ry="40" fill="#A7F3D0"/>
    <rect x="320" y="600" width="160" height="60" rx="16" fill="#6366F1"/>
    <rect x="360" y="620" width="80" height="20" rx="6" fill="#F9FAFB"/>
    <ellipse cx="400" cy="540" rx="70" ry="50" fill="#FBBF24"/>
    <ellipse cx="400" cy="540" rx="60" ry="40" fill="#FDE68A"/>
    <ellipse cx="400" cy="480" rx="40" ry="30" fill="#F9FAFB"/>
    <ellipse cx="400" cy="480" rx="30" ry="20" fill="#F3F4F6"/>
    <ellipse cx="400" cy="470" rx="20" ry="10" fill="#6366F1"/>
    <rect x="380" y="450" width="40" height="30" rx="12" fill="#6366F1"/>
    <ellipse cx="400" cy="465" rx="15" ry="7" fill="#F9FAFB"/>
    <ellipse cx="400" cy="465" rx="8" ry="4" fill="#6366F1"/>
    <rect x="390" y="455" width="20" height="8" rx="3" fill="#FBBF24"/>
    <ellipse cx="400" cy="450" rx="12" ry="5" fill="#6366F1"/>
    <ellipse cx="400" cy="450" rx="6" ry="2" fill="#F9FAFB"/>
    <ellipse cx="400" cy="440" rx="16" ry="6" fill="#6366F1"/>
    <ellipse cx="400" cy="440" rx="8" ry="3" fill="#F9FAFB"/>
    <ellipse cx="400" cy="435" rx="12" ry="3" fill="#6366F1"/>
    <ellipse cx="400" cy="435" rx="3" ry="1.5" fill="#F9FAFB"/>
    <!-- Hair -->
    <ellipse cx="400" cy="430" rx="18" ry="6" fill="#1E293B"/>
    <!-- Hands on laptop -->
    <ellipse cx="370" cy="640" rx="8" ry="3" fill="#FBBF24"/>
    <ellipse cx="430" cy="640" rx="8" ry="3" fill="#FBBF24"/>
  </g>
</svg>
